<svg width="111" height="128" viewBox="0 0 111 128" fill="none" xmlns="http://www.w3.org/2000/svg">
<path d="M55.0094 0L0 32V96L55.0094 128L110.003 96.0096L110.019 95.984V32L55.0094 0ZM55.0094 12.3184L94.1289 35.072L83.5482 41.2288L55.0094 24.6352L26.4768 41.2336L15.8867 35.072L55.0094 12.3184ZM78.2626 50.4736V71.368L60.3044 60.928V40.032L78.2626 50.4736ZM49.7143 40.032V60.9232L31.7608 71.3664V50.4736L49.7143 40.032ZM49.7143 112.603L10.5854 89.8432V44.3072L21.1692 50.464V83.6816L49.7143 100.288V112.603ZM37.0465 80.6032L55.0047 70.1568L72.9676 80.6032L55.0094 91.0464L37.0465 80.6032ZM99.4334 89.8432L60.3044 112.603V100.288L88.848 83.688V50.464L99.4318 44.3072L99.4334 89.8432Z" fill="url(#paint0_linear_14_11)"/>
<defs>
<linearGradient id="paint0_linear_14_11" x1="0" y1="0" x2="110.019" y2="0" gradientUnits="userSpaceOnUse">
<stop stop-color="#006838"/>
<stop offset="1" stop-color="#96CF24"/>
</linearGradient>
</defs>
</svg>
